#!OML:ASF E:/inclinewalkrobotboard/Project1/Captureday1/Session1/subject1.ASF
:FULLY-SPECIFIED
:DEGREES
101
root 0 0 0 1.9594127358086264 -10.725420812492745 0.8986202844428104
lowerback -0.2650047046977322 -1.7680740254407157 -2.6805168225963776
upperback -0.2862902631227663 -2.313446090235728 1.6809438206333729
thorax -0.011666871391326605 -1.1638484627706382 3.164798868675734
lowerneck -25.203391751780444 -1.7891487946918962 -7.912749113206411
upperneck 27.391550368900276 0.02047744046926836 2.207590834629424
head 13.393784186351251 -0.6119432747335379 2.3004697274179273
rclavicle -2.0029824874662478E-15 7.192814078393857E-16
rhumerus -32.63879993273274 -2.963460078374472 -79.88075021882521
rradius 29.95605267687577
rwrist 19.319627374822627
rhand -17.933287256563432 9.313745966531226
rfingers 7.125019999999931
rthumb 8.33038351281803 -20.48262868065884
lclavicle -4.206416713697145E-15 3.00982369189671E-15
lhumerus -23.03039794868363 -6.31551271681936 91.81309813603364
lradius 63.535843658850034
lwrist 4.004046830906343
lhand -27.393956837157045 22.337154052411393
lfingers 7.125019999999996
lthumb -0.8320199938625015 52.415475576626605
rfemur -31.767054472191198 1.289566910334817 17.887984444852442
rtibia 46.37365751359799
rfoot -4.337739416371768 -10.5599482013736
rtoes -2.0045970956303742
lfemur 4.856991181220991 -4.011334086387327 -29.855351459310018
ltibia 16.704819995099953
lfoot -22.072603714607325 0.9109767862670322
ltoes 0.6016564503139339
102
root 0 0 0 1.9802993864884126 -10.758507334236487 0.9176066625606032
lowerback -0.2659599901302734 -1.7908488955309572 -2.683800104786158
upperback -0.25934731717134696 -2.343432592465132 1.6971484407935848
thorax 0.020513423117157537 -1.1805750306610254 3.184696202309696
lowerneck -25.384356948413384 -1.7927691937274834 -7.917052127949238
upperneck 27.15315092698418 0.0320303605329042 2.214672802748156
head 13.33586302631371 -0.5972976812551155 2.3008295119637774
rclavicle -4.2562783518651854E-16 -2.5624656270642957E-16
rhumerus -33.116799469942706 -2.69668669161902 -79.1460288704333
rradius 29.47262441786119
rwrist 19.605732703272704
rhand -17.941037777274452 9.25829915216039
rfingers 7.125019999999936
rthumb 8.322648637106314 -20.5623051397149
lclavicle -1.6811452504353954E-15 2.2469673522275002E-15
lhumerus -22.92584291758051 -7.248174611868368 91.5445685144289
lradius 64.12582162707261
lwrist 4.3661422984301765
lhand -27.258270989457074 22.88420593703886
lfingers 7.12501999999999
lthumb -0.6987491012907805 52.97979030669798
rfemur -32.95005592996321 2.7296275904459817 17.048094387873526
rtibia 36.497521951951526
rfoot -4.448154792813524 -11.832141756530248
rtoes -3.842530415861762
lfemur 9.881590329922695 -4.435307739732727 -30.283540291803703
ltibia 14.797645929682712
lfoot -20.82426015467174 -0.9102269773175955
ltoes -3.3183426166225196
103
root 0 0 0 1.9987561379438767 -10.781517984444841 0.9460410980640337
lowerback -0.231224156884142 -1.8162625461582662 -2.6819987771770277
upperback -0.22941243524742044 -2.3763429392677726 1.7374090790014536
thorax 0.03669613924878923 -1.19899948292094 3.227966182293777
lowerneck -25.708782261740396 -1.7930582631336032 -7.884081925605392
upperneck 26.534946150972175 0.05563325666067065 2.225183227132331
head 13.167551561799996 -0.5653862915957257 2.293189374493818
rclavicle 1.4621280359627966E-15 -1.2200420238055212E-15
rhumerus -33.61792117132917 -2.7161036036581288 -78.49712163241863
rradius 29.02157837766778
rwrist 19.96600656972158
rhand -17.887445915949357 9.150794063024922
rfingers 7.125019999999943
rthumb 8.37361712419723 -20.685587141604955
lclavicle 8.09732780115539E-16 1.5793444451907593E-15
lhumerus -22.72599256399456 -8.046213789196944 91.31295949565914
lradius 64.70207578899404
lwrist 4.600903194704419
lhand -27.223275459935316 23.373266417731063
lfingers 7.125019999999986
lthumb -0.6608422069699156 53.479344404598464
rfemur -33.45994288559997 3.613865967050942 17.14982314362659
rtibia 30.734419871766523
rfoot -4.813852599011048 -12.198117729075326
rtoes -4.330697578693491
lfemur 16.920876848787394 -4.965257612497722 -30.172343476359856
ltibia 14.617112547204966
lfoot -16.179109786550093 -4.115342163100998
ltoes -8.376705957963813
104
root 0 0 0 2.015463195051274 -10.737298246073793 1.0087149255617722
lowerback -0.067975534510746 -1.8422673145185744 -2.6703816274849808
upperback -0.1862529630060214 -2.4084431674121105 1.8642519606021097
thorax -0.0031916991365394942 -1.2179158159162158 3.358716844632055
lowerneck -26.525281396922068 -1.799777245029627 -7.729152459398761
upperneck 24.563878696285343 0.08522627815578243 2.2999604463225882
head 12.602163997955902 -0.4834712883092229 2.2742263776330547
rclavicle 3.886389028626666E-15 -2.0532142443620885E-15
rhumerus -34.19715960981215 -3.3542945842365928 -77.96793506615384
rradius 28.585238068995302
rwrist 20.47453619122069
rhand -17.713332428021797 8.961213440293516
rfingers 7.125019999999952
rthumb 8.540529623672297 -20.863444473509183
lclavicle 1.9407125904276583E-15 8.258467894335648E-16
lhumerus -22.74514754096386 -8.67012142886631 91.27512253278816
lradius 65.05661211244977
lwrist 4.6955722798135655
lhand -27.238201646880725 23.558094838789657
lfingers 7.125019999999984
lthumb -0.6730418601502661 53.666980984249115
rfemur -35.44369690337564 4.174448468168498 18.168308906433978
rtibia 26.517707391841263
rfoot -4.871079831820953 -11.775118276388898
rtoes -2.1661497234185925
lfemur 20.8040863710465 -4.12707823752238 -27.357899185494226
ltibia 26.699671764080282
lfoot -5.950165699202352 -11.17756013151904
ltoes -15.218903243748802
